<?xml version="1.0" encoding="utf-8"?>
<!-- Generator: Adobe Illustrator 26.4.1, SVG Export Plug-In . SVG Version: 6.00 Build 0)  -->
<svg version="1.1" id="Layer_1" xmlns="http://www.w3.org/2000/svg" xmlns:xlink="http://www.w3.org/1999/xlink" x="0px" y="0px"
	 viewBox="0 0 132 132" style="enable-background:new 0 0 132 132;" xml:space="preserve">
<style type="text/css">
	.st0{fill:url(#SVGID_1_);stroke:#162B41;stroke-width:2;stroke-miterlimit:10;}
	.st1{fill:#FFFFFF;stroke:#162B41;stroke-width:1.5;stroke-miterlimit:10;}
	.st2{fill:url(#SVGID_00000180324293374618758150000004675820708074503303_);}
</style>
<radialGradient id="SVGID_1_" cx="-21.562" cy="125.4303" r="150.3027" gradientUnits="userSpaceOnUse">
	<stop  offset="0" style="stop-color:#FFDD55"/>
	<stop  offset="0.1" style="stop-color:#017594"/>
	<stop  offset="0.5" style="stop-color:#384A9F"/>
	<stop  offset="1" style="stop-color:#CE4EC8"/>
</radialGradient>
<circle class="st0" cx="66" cy="66" r="63.5"/>
<path class="st1" d="M80.3,55.5c-5.7-7.9-16.9-9.6-24.8-3.8c-7.9,5.7-9.6,16.9-3.8,24.8s16.9,9.6,24.8,3.8
	C84.4,74.6,86.1,63.4,80.3,55.5z M72.2,74.3c-4.5,3.4-11.1,2.5-14.5-2.2c-3.4-4.5-2.4-11,2.3-14.5c4.5-3.4,11-2.4,14.4,2.3
	C77.7,64.4,76.8,70.9,72.2,74.3C72.3,74.3,72.3,74.3,72.2,74.3z"/>
<path class="st1" d="M98.2,62.3c-0.4-3.8,1.5-7.4,4.9-9.3l2.7-1.5l-1.3-2.8c-2.4-5.6-6.1-10.5-10.7-14.6l-2.3-2l-2.2,2.1
	c-2.7,2.6-6.9,3.4-10.3,1.9c-3.4-1.4-5.6-5-5.5-8.7l0.1-3l-3-0.4c-6.1-0.7-12.3,0-18,2l-2.8,1l0.8,2.9c1.3,5-2,10.2-7,11.3
	c-2.3,0.6-4.9,0.2-7-1l-2.6-1.5l-1.8,2.4c-3.7,4.9-6.1,10.6-7.3,16.6l-0.6,3l2.9,0.9c3.7,1.1,6.2,4.1,6.6,7.9
	c0.4,3.8-1.5,7.4-4.9,9.3l-2.7,1.5l1.2,2.8c2.4,5.6,6,10.5,10.6,14.6l2.3,2l2.2-2.1c2.7-2.6,6.9-3.4,10.3-1.9c3.5,1.5,5.6,5,5.5,8.8
	l-0.1,3.1l3.1,0.3c3.1,0.3,6.2,0.3,9.4,0c3-0.3,5.9-1,8.7-2l2.9-1.1l-0.8-2.9c-1.3-5,1.8-10.2,6.7-11.4c2.4-0.6,5.1-0.2,7.3,1.1
	l2.6,1.6l1.8-2.4c3.7-4.9,6-10.7,7.3-16.7l0.6-3l-2.9-0.9C101.2,69.2,98.6,66.1,98.2,62.3z M96.3,84.6C88,81.4,78.7,85.7,75.6,94
	c-0.8,2-1,4.2-0.9,6.3c-3.2,0.8-6.6,1.2-9.9,1c-0.8-5.3-4.4-9.7-9.3-11.9c-4.9-2.1-10.5-1.7-15.1,1.2c-2.2-2.3-4.3-5-5.8-8
	c4.1-3.4,6.3-8.6,5.7-13.9c-0.6-5.3-3.7-9.9-8.5-12.3c0.9-3.2,2.2-6.3,4-9.1c8.4,3,17.5-1.4,20.6-9.7c0.7-1.9,1-4,0.9-6
	c3.2-0.9,6.6-1.3,9.9-1.1C68.7,39.2,77,45,85.7,43.4c2-0.4,4.1-1.2,5.9-2.3c1.2,1.2,2.3,2.5,3.3,3.9s1.8,2.6,2.5,4
	c-4.1,3.4-6.3,8.6-5.7,13.9c0.5,5.3,3.8,10,8.6,12.4C99.2,78.6,97.9,81.7,96.3,84.6L96.3,84.6z"/>
<radialGradient id="SVGID_00000161606080909153309320000013132709958852494500_" cx="-25.012" cy="127.7718" r="156.2247" gradientUnits="userSpaceOnUse">
	<stop  offset="0" style="stop-color:#FFDD55"/>
	<stop  offset="0.1" style="stop-color:#017594"/>
	<stop  offset="0.5" style="stop-color:#384A9F"/>
	<stop  offset="1" style="stop-color:#CE4EC8"/>
</radialGradient>
<path style="fill:url(#SVGID_00000161606080909153309320000013132709958852494500_);" d="M66,132L66,132c-36.5,0-66-29.5-66-66v0
	C0,29.5,29.5,0,66,0h0c36.5,0,66,29.5,66,66v0C132,102.5,102.5,132,66,132z"/>
</svg>
