<?xml version="1.0" encoding="utf-8"?>
<!-- Generator: Adobe Illustrator 26.4.1, SVG Export Plug-In . SVG Version: 6.00 Build 0)  -->
<svg version="1.1" id="Layer_1" xmlns="http://www.w3.org/2000/svg" xmlns:xlink="http://www.w3.org/1999/xlink" x="0px" y="0px"
	 viewBox="0 0 132 132" style="enable-background:new 0 0 132 132;" xml:space="preserve">
<style type="text/css">
	.st0{fill:url(#SVGID_1_);stroke:#162B41;stroke-width:2;stroke-miterlimit:10;}
	.st1{fill:url(#SVGID_00000091725636102542011550000011720367980520743091_);stroke:#162B41;stroke-width:2;stroke-miterlimit:10;}
	.st2{fill:#FFFFFF;stroke:#162B41;stroke-width:2;stroke-miterlimit:10;}
</style>
<g>
	
		<radialGradient id="SVGID_1_" cx="-2.8546" cy="106.8086" r="114.9967" fx="-13.5908" fy="106.8517" gradientUnits="userSpaceOnUse">
		<stop  offset="0" style="stop-color:#FFDD55"/>
		<stop  offset="0.1" style="stop-color:#017594"/>
		<stop  offset="0.5" style="stop-color:#384A9F"/>
		<stop  offset="1" style="stop-color:#C837AB"/>
	</radialGradient>
	<path class="st0" d="M109.9,129.6H22.1c-10.9,0-19.7-8.8-19.7-19.7V22.1c0-10.9,8.8-19.7,19.7-19.7h87.8c10.9,0,19.7,8.8,19.7,19.7
		v87.8C129.6,120.8,120.8,129.6,109.9,129.6z"/>
	
		<radialGradient id="SVGID_00000169544407199231276250000014567546883957837967_" cx="1.9605" cy="-0.2781" r="71.351" gradientUnits="userSpaceOnUse">
		<stop  offset="0" style="stop-color:#3771C8"/>
		<stop  offset="0.128" style="stop-color:#3771C8"/>
		<stop  offset="1" style="stop-color:#6600FF;stop-opacity:0"/>
	</radialGradient>
	
		<path style="fill:url(#SVGID_00000169544407199231276250000014567546883957837967_);stroke:#162B41;stroke-width:2;stroke-miterlimit:10;" d="
		M109.9,129.6H22.1c-10.9,0-19.7-8.8-19.7-19.7V22.1c0-10.9,8.8-19.7,19.7-19.7h87.8c10.9,0,19.7,8.8,19.7,19.7v87.8
		C129.6,120.8,120.8,129.6,109.9,129.6z"/>
	<g>
		<path class="st2" d="M84.1,57.5c-5.6-9.9-18.3-13.3-28.2-7.6c-9.9,5.6-13.3,18.3-7.6,28.2C54,88,66.6,91.4,76.5,85.7
			C86.4,80.1,89.8,67.4,84.1,57.5z M72.3,78.3c-5.7,3.3-13.1,1.4-16.5-4.5c-3.3-5.7-1.4-13.1,4.5-16.5C66,54,73.3,56,76.7,61.8
			c3.3,5.7,1.4,13.1-4.3,16.4C72.4,78.2,72.3,78.2,72.3,78.3z"/>
		<path class="st2" d="M104,67.7c0-4.5,2.7-8.4,6.9-10.1l3.3-1.4l-1.1-3.4c-2.1-6.8-5.7-13-10.5-18.3l-2.4-2.6l-2.8,2.1
			c-3.5,2.7-8.4,3.1-12.2,0.9c-3.8-2.1-5.9-6.5-5.3-10.8l0.5-3.5l-3.4-0.8c-7-1.6-14.2-1.6-21.1,0l-3.4,0.8l0.5,3.5
			c0.8,6-3.6,11.6-9.6,12.2c-2.8,0.4-5.7-0.4-8-2.1l-2.8-2.1l-2.4,2.6c-4.9,5.2-8.4,11.5-10.6,18.3l-1.1,3.4l3.3,1.4
			c4.1,1.7,6.7,5.6,6.6,10c0,4.5-2.7,8.4-6.9,10.1l-3.3,1.4l1,3.4c2,6.8,5.6,13,10.4,18.3l2.4,2.6l2.8-2.1c3.5-2.7,8.4-3.1,12.2-0.9
			c3.9,2.2,5.9,6.5,5.2,10.9l-0.5,3.6l3.5,0.8c3.6,0.8,7.2,1.2,10.9,1.2c3.5,0,7-0.4,10.4-1.2L80,115l-0.5-3.5
			c-0.9-6,3.4-11.6,9.3-12.3c2.9-0.4,5.9,0.4,8.3,2.2l2.8,2.2l2.4-2.6c4.9-5.2,8.4-11.6,10.6-18.4l1.1-3.4l-3.3-1.4
			C106.6,76.2,104,72.2,104,67.7z M98.9,93.3c-9.2-4.7-20.5-1-25.2,8.3c-1.2,2.2-1.7,4.7-1.9,7.2c-3.8,0.5-7.8,0.5-11.6-0.1
			c-0.3-6.2-3.8-11.8-9.2-15c-5.4-3.1-12-3.3-17.6-0.6c-2.3-3-4.3-6.4-5.7-10c5.2-3.4,8.4-9.2,8.4-15.4s-3-11.9-8.2-15.4
			c1.5-3.6,3.4-7,5.8-10c9.3,4.6,20.5,0.7,25.1-8.6c1.1-2.1,1.7-4.5,1.8-6.8c3.8-0.6,7.8-0.6,11.6,0c0.7,10.2,9.5,18,19.8,17.3
			c2.4-0.2,4.9-0.8,7.1-1.9c1.2,1.6,2.3,3.2,3.3,4.9c1,1.7,1.7,3.3,2.4,5c-5.2,3.4-8.4,9.2-8.4,15.4c-0.1,6.2,3.1,12.1,8.3,15.5
			C103.1,86.8,101.2,90.2,98.9,93.3L98.9,93.3z"/>
	</g>
</g>
</svg>
