<svg version="1.1" id="Layer_1" xmlns="http://www.w3.org/2000/svg" x="0" y="0" viewBox="0 0 132 132" style="enable-background:new 0 0 132 132" xml:space="preserve"><style>.st2{fill:#fff;stroke:#162b41;stroke-width:2;stroke-miterlimit:10}</style><radialGradient id="SVGID_1_" cx="-2.855" cy="106.809" r="114.997" fx="-13.591" fy="106.852" gradientUnits="userSpaceOnUse"><stop offset="0" style="stop-color:#fd5"/><stop offset=".1" style="stop-color:#017594"/><stop offset=".5" style="stop-color:#384a9f"/><stop offset="1" style="stop-color:#c837ab"/></radialGradient><path d="M109.9 129.6H22.1c-10.9 0-19.7-8.8-19.7-19.7V22.1c0-10.9 8.8-19.7 19.7-19.7h87.8c10.9 0 19.7 8.8 19.7 19.7v87.8c0 10.9-8.8 19.7-19.7 19.7z" style="fill:url(#SVGID_1_);stroke:#162b41;stroke-width:2;stroke-miterlimit:10"/><radialGradient id="SVGID_00000169544407199231276250000014567546883957837967_" cx="1.96" cy="-.278" r="71.351" gradientUnits="userSpaceOnUse"><stop offset="0" style="stop-color:#3771c8"/><stop offset=".128" style="stop-color:#3771c8"/><stop offset="1" style="stop-color:#60f;stop-opacity:0"/></radialGradient><path style="fill:url(#SVGID_00000169544407199231276250000014567546883957837967_);stroke:#162b41;stroke-width:2;stroke-miterlimit:10" d="M109.9 129.6H22.1c-10.9 0-19.7-8.8-19.7-19.7V22.1c0-10.9 8.8-19.7 19.7-19.7h87.8c10.9 0 19.7 8.8 19.7 19.7v87.8c0 10.9-8.8 19.7-19.7 19.7z"/><path class="st2" d="M84.1 57.5c-5.6-9.9-18.3-13.3-28.2-7.6-9.9 5.6-13.3 18.3-7.6 28.2C54 88 66.6 91.4 76.5 85.7c9.9-5.6 13.3-18.3 7.6-28.2zM72.3 78.3c-5.7 3.3-13.1 1.4-16.5-4.5-3.3-5.7-1.4-13.1 4.5-16.5 5.7-3.3 13-1.3 16.4 4.5 3.3 5.7 1.4 13.1-4.3 16.4 0 0-.1 0-.1.1z"/><path class="st2" d="M104 67.7c0-4.5 2.7-8.4 6.9-10.1l3.3-1.4-1.1-3.4c-2.1-6.8-5.7-13-10.5-18.3l-2.4-2.6-2.8 2.1c-3.5 2.7-8.4 3.1-12.2.9-3.8-2.1-5.9-6.5-5.3-10.8l.5-3.5-3.4-.8c-7-1.6-14.2-1.6-21.1 0l-3.4.8.5 3.5c.8 6-3.6 11.6-9.6 12.2-2.8.4-5.7-.4-8-2.1l-2.8-2.1-2.4 2.6c-4.9 5.2-8.4 11.5-10.6 18.3l-1.1 3.4 3.3 1.4c4.1 1.7 6.7 5.6 6.6 10 0 4.5-2.7 8.4-6.9 10.1l-3.3 1.4 1 3.4c2 6.8 5.6 13 10.4 18.3l2.4 2.6 2.8-2.1c3.5-2.7 8.4-3.1 12.2-.9 3.9 2.2 5.9 6.5 5.2 10.9l-.5 3.6 3.5.8c3.6.8 7.2 1.2 10.9 1.2 3.5 0 7-.4 10.4-1.2l3.5-.9-.5-3.5c-.9-6 3.4-11.6 9.3-12.3 2.9-.4 5.9.4 8.3 2.2l2.8 2.2 2.4-2.6c4.9-5.2 8.4-11.6 10.6-18.4l1.1-3.4-3.3-1.4c-4.1-1.6-6.7-5.6-6.7-10.1zm-5.1 25.6c-9.2-4.7-20.5-1-25.2 8.3-1.2 2.2-1.7 4.7-1.9 7.2-3.8.5-7.8.5-11.6-.1-.3-6.2-3.8-11.8-9.2-15-5.4-3.1-12-3.3-17.6-.6-2.3-3-4.3-6.4-5.7-10 5.2-3.4 8.4-9.2 8.4-15.4s-3-11.9-8.2-15.4c1.5-3.6 3.4-7 5.8-10 9.3 4.6 20.5.7 25.1-8.6 1.1-2.1 1.7-4.5 1.8-6.8 3.8-.6 7.8-.6 11.6 0 .7 10.2 9.5 18 19.8 17.3 2.4-.2 4.9-.8 7.1-1.9 1.2 1.6 2.3 3.2 3.3 4.9 1 1.7 1.7 3.3 2.4 5-5.2 3.4-8.4 9.2-8.4 15.4-.1 6.2 3.1 12.1 8.3 15.5-1.6 3.7-3.5 7.1-5.8 10.2z"/></svg>