<svg version="1.1" id="Layer_1" xmlns="http://www.w3.org/2000/svg" x="0" y="0" viewBox="0 0 132 132" style="enable-background:new 0 0 132 132" xml:space="preserve"><style>.st2{fill:#fff;stroke:#162b41;stroke-width:2;stroke-miterlimit:10}</style><radialGradient id="SVGID_1_" cx="4.446" cy="29.323" r="130.24" gradientTransform="matrix(.9839 0 0 -.9839 -13.304 125.367)" gradientUnits="userSpaceOnUse"><stop offset="0" style="stop-color:#fd5"/><stop offset=".1" style="stop-color:#017594"/><stop offset=".5" style="stop-color:#384a9f"/><stop offset="1" style="stop-color:#c837ab"/></radialGradient><path d="M13.4 1.1h105.3c6.8 0 12.3 5.5 12.3 12.3v105.3c0 6.8-5.5 12.3-12.3 12.3H13.4c-6.8 0-12.3-5.5-12.3-12.3V13.4c0-6.7 5.5-12.3 12.3-12.3z" style="fill:url(#SVGID_1_);stroke:#162b41;stroke-width:2;stroke-miterlimit:10"/><radialGradient id="SVGID_00000055698367747297693270000005184581865747703477_" cx="14.189" cy="129.09" r="74.052" gradientTransform="matrix(.9839 0 0 -.9839 -13.304 125.383)" gradientUnits="userSpaceOnUse"><stop offset="0" style="stop-color:#3771c8"/><stop offset=".128" style="stop-color:#3771c8"/><stop offset="1" style="stop-color:#60f;stop-opacity:0"/></radialGradient><path style="fill:url(#SVGID_00000055698367747297693270000005184581865747703477_);stroke:#162b41;stroke-width:2;stroke-miterlimit:10" d="M118.7 131H13.4c-6.8 0-12.3-5.5-12.3-12.3V13.4c0-6.8 5.5-12.3 12.3-12.3h105.3c6.8 0 12.3 5.5 12.3 12.3v105.3c-.1 6.8-5.6 12.3-12.3 12.3z"/><path class="st2" d="M84.4 55.4c-5.8-10.2-18.8-13.7-29-7.8-10.2 5.8-13.7 18.8-7.8 29 5.8 10.2 18.8 13.7 29 7.8 10.2-5.8 13.7-18.8 7.8-29zM72.2 76.8c-5.9 3.4-13.5 1.4-17-4.6-3.4-5.9-1.4-13.5 4.6-17 6-3.4 13.5-1.4 17 4.6 3.4 5.9 1.4 13.5-4.4 16.9-.1 0-.2 0-.2.1z"/><path class="st2" d="M104.9 65.9c0-4.6 2.8-8.7 7.1-10.4l3.4-1.4-1.1-3.5c-2.2-7-5.9-13.4-10.8-18.8l-2.5-2.7-2.9 2.2c-3.6 2.8-8.6 3.2-12.6.9-3.9-2.2-6.1-6.7-5.5-11.1l.5-3.6-3.5-.8c-7.2-1.6-14.6-1.6-21.7 0l-3.5.8.5 3.6c.8 6.2-3.7 11.9-9.9 12.6-2.9.4-5.9-.4-8.2-2.2l-2.9-2.2-2.5 2.7c-5 5.4-8.7 11.8-10.9 18.8l-1.1 3.5 3.4 1.4c4.2 1.7 6.9 5.8 6.8 10.3 0 4.6-2.8 8.7-7.1 10.4l-3.4 1.4 1 3.5c2.1 7 5.8 13.4 10.7 18.8l2.5 2.7 2.9-2.2c3.6-2.8 8.6-3.2 12.6-.9 4 2.3 6.1 6.7 5.4 11.2l-.5 3.7 3.6.8c3.7.8 7.4 1.2 11.2 1.2 3.6 0 7.2-.4 10.7-1.2l3.6-.8-.5-3.6c-.9-6.2 3.5-11.9 9.6-12.7 3-.4 6.1.4 8.5 2.3l2.9 2.3 2.5-2.7c5-5.4 8.7-11.9 10.9-18.9l1.1-3.5-3.4-1.4c-4.2-1.8-6.9-5.9-6.9-10.5zm-5.3 26.3c-9.5-4.8-21.1-1-25.9 8.5-1.2 2.3-1.8 4.8-2 7.4-3.9.5-8 .5-11.9-.1-.3-6.4-3.9-12.2-9.5-15.4-5.6-3.2-12.4-3.4-18.1-.6-2.4-3.1-4.4-6.6-5.9-10.3 5.4-3.5 8.6-9.5 8.6-15.9s-3.1-12.3-8.4-15.9c1.5-3.7 3.5-7.2 6-10.3 9.6 4.7 21.1.7 25.8-8.9 1.1-2.2 1.7-4.6 1.9-7 3.9-.6 8-.6 11.9 0 .7 10.5 9.8 18.5 20.4 17.8 2.5-.2 5-.8 7.3-2 1.2 1.6 2.4 3.3 3.4 5 1 1.7 1.8 3.4 2.5 5.2-5.4 3.5-8.7 9.5-8.7 15.9-.1 6.4 3.2 12.5 8.5 16-1.5 3.9-3.5 7.4-5.9 10.6z"/></svg>