<?xml version="1.0" encoding="utf-8"?>
<!-- Generator: Adobe Illustrator 27.0.0, SVG Export Plug-In . SVG Version: 6.00 Build 0)  -->
<svg version="1.1" id="Layer_1" xmlns="http://www.w3.org/2000/svg" xmlns:xlink="http://www.w3.org/1999/xlink" x="0px" y="0px"
	 viewBox="0 0 132 132" style="enable-background:new 0 0 132 132;" xml:space="preserve">
<style type="text/css">
	.st0{fill:url(#SVGID_1_);stroke:#162B41;stroke-width:2;stroke-miterlimit:10;}
	.st1{fill:url(#SVGID_00000020383022579497955610000002131992412368942263_);stroke:#162B41;stroke-width:2;stroke-miterlimit:10;}
	.st2{fill:#FFFFFF;stroke:#162B41;stroke-width:2;stroke-miterlimit:10;}
</style>
<radialGradient id="SVGID_1_" cx="4.4458" cy="29.323" r="130.2405" gradientTransform="matrix(0.9839 0 0 -0.9839 -13.304 125.3671)" gradientUnits="userSpaceOnUse">
	<stop  offset="0" style="stop-color:#FFDD55"/>
	<stop  offset="0.1" style="stop-color:#017594"/>
	<stop  offset="0.5" style="stop-color:#384A9F"/>
	<stop  offset="1" style="stop-color:#C837AB"/>
</radialGradient>
<path class="st0" d="M13.4,1.1h105.3c6.8,0,12.3,5.5,12.3,12.3v105.3c0,6.8-5.5,12.3-12.3,12.3H13.4c-6.8,0-12.3-5.5-12.3-12.3V13.4
	C1.1,6.7,6.6,1.1,13.4,1.1z"/>
<radialGradient id="SVGID_00000055698367747297693270000005184581865747703477_" cx="14.1891" cy="129.0904" r="74.0517" gradientTransform="matrix(0.9839 0 0 -0.9839 -13.304 125.3828)" gradientUnits="userSpaceOnUse">
	<stop  offset="0" style="stop-color:#3771C8"/>
	<stop  offset="0.128" style="stop-color:#3771C8"/>
	<stop  offset="1" style="stop-color:#6600FF;stop-opacity:0"/>
</radialGradient>
<path style="fill:url(#SVGID_00000055698367747297693270000005184581865747703477_);stroke:#162B41;stroke-width:2;stroke-miterlimit:10;" d="
	M118.7,131H13.4c-6.8,0-12.3-5.5-12.3-12.3V13.4c0-6.8,5.5-12.3,12.3-12.3h105.3c6.8,0,12.3,5.5,12.3,12.3v105.3
	C130.9,125.5,125.4,131,118.7,131z"/>
<g>
	<path class="st2" d="M84.4,55.4c-5.8-10.2-18.8-13.7-29-7.8c-10.2,5.8-13.7,18.8-7.8,29c5.8,10.2,18.8,13.7,29,7.8
		C86.8,78.6,90.3,65.6,84.4,55.4z M72.2,76.8c-5.9,3.4-13.5,1.4-17-4.6c-3.4-5.9-1.4-13.5,4.6-17c6-3.4,13.5-1.4,17,4.6
		c3.4,5.9,1.4,13.5-4.4,16.9C72.3,76.7,72.2,76.7,72.2,76.8z"/>
	<path class="st2" d="M104.9,65.9c0-4.6,2.8-8.7,7.1-10.4l3.4-1.4l-1.1-3.5c-2.2-7-5.9-13.4-10.8-18.8l-2.5-2.7l-2.9,2.2
		c-3.6,2.8-8.6,3.2-12.6,0.9c-3.9-2.2-6.1-6.7-5.5-11.1l0.5-3.6L77,16.7c-7.2-1.6-14.6-1.6-21.7,0l-3.5,0.8l0.5,3.6
		c0.8,6.2-3.7,11.9-9.9,12.6c-2.9,0.4-5.9-0.4-8.2-2.2l-2.9-2.2l-2.5,2.7c-5,5.4-8.7,11.8-10.9,18.8l-1.1,3.5l3.4,1.4
		c4.2,1.7,6.9,5.8,6.8,10.3c0,4.6-2.8,8.7-7.1,10.4l-3.4,1.4l1,3.5c2.1,7,5.8,13.4,10.7,18.8l2.5,2.7l2.9-2.2
		c3.6-2.8,8.6-3.2,12.6-0.9c4,2.3,6.1,6.7,5.4,11.2l-0.5,3.7l3.6,0.8c3.7,0.8,7.4,1.2,11.2,1.2c3.6,0,7.2-0.4,10.7-1.2l3.6-0.8
		l-0.5-3.6c-0.9-6.2,3.5-11.9,9.6-12.7c3-0.4,6.1,0.4,8.5,2.3l2.9,2.3l2.5-2.7c5-5.4,8.7-11.9,10.9-18.9l1.1-3.5l-3.4-1.4
		C107.6,74.6,104.9,70.5,104.9,65.9z M99.6,92.2c-9.5-4.8-21.1-1-25.9,8.5c-1.2,2.3-1.8,4.8-2,7.4c-3.9,0.5-8,0.5-11.9-0.1
		c-0.3-6.4-3.9-12.2-9.5-15.4c-5.6-3.2-12.4-3.4-18.1-0.6c-2.4-3.1-4.4-6.6-5.9-10.3c5.4-3.5,8.6-9.5,8.6-15.9
		c0-6.4-3.1-12.3-8.4-15.9c1.5-3.7,3.5-7.2,6-10.3c9.6,4.7,21.1,0.7,25.8-8.9c1.1-2.2,1.7-4.6,1.9-7c3.9-0.6,8-0.6,11.9,0
		c0.7,10.5,9.8,18.5,20.4,17.8c2.5-0.2,5-0.8,7.3-2c1.2,1.6,2.4,3.3,3.4,5c1,1.7,1.8,3.4,2.5,5.2c-5.4,3.5-8.7,9.5-8.7,15.9
		c-0.1,6.4,3.2,12.5,8.5,16C104,85.5,102,89,99.6,92.2L99.6,92.2z"/>
</g>
</svg>
