<?xml version="1.0" encoding="utf-8"?>
<!-- Generator: Adobe Illustrator 27.0.0, SVG Export Plug-In . SVG Version: 6.00 Build 0)  -->
<svg version="1.1" id="Layer_1" xmlns="http://www.w3.org/2000/svg" xmlns:xlink="http://www.w3.org/1999/xlink" x="0px" y="0px"
	 viewBox="0 0 132 132" style="enable-background:new 0 0 132 132;" xml:space="preserve">
<style type="text/css">
	.st0{fill:url(#SVGID_1_);stroke:#162B41;stroke-width:2;stroke-miterlimit:10;}
	.st1{fill:url(#SVGID_00000163795795931952342310000003532163005333429121_);stroke:#162B41;stroke-width:2;stroke-miterlimit:10;}
	
		.st2{display:none;fill:url(#SVGID_00000006692867198247404830000015344356646733099964_);stroke:#006838;stroke-width:2;stroke-miterlimit:10;}
	.st3{display:none;fill:#FFFFFF;stroke:#006838;stroke-width:2;stroke-miterlimit:10;}
	.st4{fill:#FFFFFF;stroke:#162B41;stroke-width:2;stroke-miterlimit:10;}
</style>
<g>
	
		<radialGradient id="SVGID_1_" cx="-10.1668" cy="96.9371" r="130.2405" gradientTransform="matrix(0.9839 0 0 0.9839 1.0733 1.1398)" gradientUnits="userSpaceOnUse">
		<stop  offset="0" style="stop-color:#FFDD55"/>
		<stop  offset="0.1" style="stop-color:#FFDD55"/>
		<stop  offset="0.5" style="stop-color:#FF543E"/>
		<stop  offset="1" style="stop-color:#C837AB"/>
	</radialGradient>
	<path class="st0" d="M13.36,1.15h105.29c6.79,0,12.29,5.5,12.29,12.29v105.27c0,6.79-5.5,12.29-12.29,12.29H13.36
		c-6.79,0-12.29-5.5-12.29-12.29V13.44C1.07,6.66,6.57,1.15,13.36,1.15z"/>
	
		<radialGradient id="SVGID_00000006699887967416056930000004427780631561769399_" cx="-0.4235" cy="-2.8303" r="74.0517" gradientTransform="matrix(0.9839 0 0 0.9839 1.0733 1.1555)" gradientUnits="userSpaceOnUse">
		<stop  offset="0" style="stop-color:#3771C8"/>
		<stop  offset="0.128" style="stop-color:#3771C8"/>
		<stop  offset="1" style="stop-color:#6600FF;stop-opacity:0"/>
	</radialGradient>
	
		<path style="fill:url(#SVGID_00000006699887967416056930000004427780631561769399_);stroke:#162B41;stroke-width:2;stroke-miterlimit:10;" d="
		M118.65,131H13.36c-6.79,0-12.29-5.5-12.29-12.29V13.44c0-6.79,5.5-12.29,12.29-12.29h105.29c6.79,0,12.29,5.5,12.29,12.29v105.27
		C130.94,125.5,125.44,131,118.65,131z"/>
</g>
<linearGradient id="SVGID_00000029732444785719801950000014955950520666868111_" gradientUnits="userSpaceOnUse" x1="66.0075" y1="130.735" x2="66.0075" y2="0.8873" gradientTransform="matrix(1 0 0 -1 0 131.8898)">
	<stop  offset="0" style="stop-color:#55BA5C"/>
	<stop  offset="0.2021" style="stop-color:#50B058"/>
	<stop  offset="0.4603" style="stop-color:#409D51"/>
	<stop  offset="0.7477" style="stop-color:#248245"/>
	<stop  offset="1" style="stop-color:#006838"/>
</linearGradient>
<path style="display:none;fill:url(#SVGID_00000029732444785719801950000014955950520666868111_);stroke:#006838;stroke-width:2;stroke-miterlimit:10;" d="
	M118.54,131H13.48c-6.85,0-12.4-5.33-12.4-11.91V13.07c0-6.58,5.55-11.92,12.4-11.92h105.06c6.85,0,12.4,5.34,12.4,11.92v106.01
	C130.94,125.67,125.39,131,118.54,131z"/>
<path class="st3" d="M108.19,97.56c-1.31,2.25-4.27,3.06-6.62,1.79c-18.72-10.07-41.85-11.67-68.74-4.72
	c-2.59,0.66-5.26-0.81-5.96-3.3c-0.7-2.49,0.84-5.05,3.43-5.72c29.43-7.61,55-5.72,76.02,5.59
	C108.67,92.47,109.51,95.32,108.19,97.56z"/>
<path class="st3" d="M114.54,76.94c-1.65,2.81-5.35,3.82-8.28,2.23c-21.44-11.61-53.5-14.03-78-5.9c-3.17,1.05-6.64-0.57-7.73-3.62
	c-1.09-3.05,0.59-6.38,3.76-7.43c27.97-9.29,63.31-6.57,87.93,6.76C115.14,70.57,116.19,74.14,114.54,76.94L114.54,76.94z"/>
<path class="st3" d="M112.65,55.78c-25.68-13.42-67.17-13.23-90.88-5.36c-3.8,1.26-7.96-0.68-9.28-4.33
	c-1.31-3.66,0.71-7.65,4.51-8.91c27.21-9.03,73.03-9.15,102.59,6.29c3.55,1.85,4.86,6.11,2.93,9.51
	C120.62,56.37,116.18,57.63,112.65,55.78L112.65,55.78z"/>
<g>
	<path class="st4" d="M84.43,55.4c-5.84-10.17-18.82-13.67-28.99-7.82c-10.17,5.84-13.67,18.82-7.82,28.99
		c5.84,10.16,18.81,13.67,28.97,7.84C86.75,78.55,90.26,65.58,84.43,55.4z M72.2,76.76c-5.95,3.42-13.55,1.36-16.97-4.59
		c-3.42-5.95-1.36-13.55,4.59-16.97c5.95-3.42,13.55-1.36,16.97,4.59c3.44,5.89,1.45,13.45-4.44,16.88
		C72.3,76.7,72.25,76.73,72.2,76.76z"/>
	<path class="st4" d="M104.92,65.9c0.03-4.6,2.85-8.72,7.13-10.41l3.41-1.37l-1.1-3.5c-2.18-6.99-5.89-13.4-10.85-18.78l-2.47-2.68
		l-2.89,2.22c-3.62,2.81-8.58,3.16-12.55,0.87c-3.92-2.25-6.08-6.66-5.46-11.14l0.49-3.63l-3.58-0.79c-7.16-1.58-14.57-1.58-21.73,0
		l-3.52,0.76l0.45,3.59c0.76,6.21-3.66,11.86-9.87,12.62c-2.93,0.36-5.88-0.44-8.23-2.22l-2.87-2.2l-2.46,2.66
		c-4.96,5.39-8.69,11.79-10.93,18.76l-1.13,3.48l3.37,1.42c4.17,1.73,6.87,5.81,6.84,10.32c-0.03,4.58-2.82,8.68-7.06,10.4
		l-3.37,1.38l1.05,3.47c2.14,6.99,5.81,13.42,10.73,18.83l2.46,2.71l2.9-2.24c3.62-2.83,8.59-3.18,12.57-0.89
		c3.96,2.27,6.11,6.74,5.42,11.25l-0.53,3.65l3.6,0.79c3.66,0.82,7.4,1.24,11.15,1.25c3.59,0,7.17-0.39,10.68-1.15l3.59-0.79
		l-0.53-3.64c-0.86-6.18,3.46-11.89,9.64-12.74c3.04-0.42,6.13,0.41,8.54,2.32l2.88,2.28l2.49-2.7c4.99-5.41,8.72-11.86,10.95-18.87
		l1.13-3.52l-3.42-1.38C107.64,74.6,104.87,70.47,104.92,65.9z M99.55,92.15c-9.5-4.78-21.08-0.96-25.86,8.54
		c-1.17,2.32-1.85,4.85-2.02,7.45c-3.95,0.54-7.97,0.52-11.92-0.06c-0.35-6.42-3.92-12.22-9.5-15.41
		c-5.56-3.22-12.37-3.42-18.12-0.56c-2.44-3.12-4.41-6.58-5.85-10.26c5.36-3.53,8.59-9.5,8.63-15.92c0.04-6.36-3.1-12.32-8.37-15.87
		c1.5-3.7,3.51-7.17,5.99-10.31c9.58,4.66,21.13,0.68,25.79-8.9c1.07-2.19,1.71-4.57,1.89-7c3.95-0.56,7.96-0.56,11.92,0
		c0.71,10.54,9.82,18.51,20.36,17.8c2.53-0.17,5-0.84,7.27-1.97c1.25,1.58,2.38,3.26,3.39,5c0.96,1.68,1.8,3.43,2.52,5.22
		c-5.39,3.52-8.66,9.51-8.69,15.95c-0.06,6.43,3.16,12.46,8.54,15.98C104.02,85.54,102.02,89.01,99.55,92.15L99.55,92.15z"/>
</g>
</svg>
